<svg width="96" height="103" viewBox="0 0 96 103" fill="none" xmlns="http://www.w3.org/2000/svg">
<path d="M65 45L33.5 2.5L1.5 45V101.5H65" stroke="black" stroke-width="3"/>
<mask id="path-2-outside-1_374_9490" maskUnits="userSpaceOnUse" x="15" y="50" width="38" height="20" fill="black">
<rect fill="white" x="15" y="50" width="38" height="20"/>
<path d="M16.3871 69V51.5455H22.2848C23.6484 51.5455 24.7678 51.7784 25.6428 52.2443C26.5178 52.7045 27.1655 53.3381 27.5859 54.1449C28.0064 54.9517 28.2166 55.8693 28.2166 56.8977C28.2166 57.9261 28.0064 58.8381 27.5859 59.6335C27.1655 60.429 26.5206 61.054 25.6513 61.5085C24.782 61.9574 23.6712 62.1818 22.3189 62.1818H17.5462V60.2727H22.2507C23.1825 60.2727 23.9325 60.1364 24.5007 59.8636C25.0746 59.5909 25.4893 59.2045 25.745 58.7045C26.0064 58.1989 26.1371 57.5966 26.1371 56.8977C26.1371 56.1989 26.0064 55.5881 25.745 55.0653C25.4837 54.5426 25.0661 54.1392 24.4922 53.8551C23.9183 53.5653 23.1598 53.4205 22.2166 53.4205H18.5007V69H16.3871ZM24.603 61.1591L28.8984 69H26.4439L22.2166 61.1591H24.603ZM38.4886 69V51.5455H44.3864C45.75 51.5455 46.8693 51.7784 47.7443 52.2443C48.6193 52.7045 49.267 53.3381 49.6875 54.1449C50.108 54.9517 50.3182 55.8693 50.3182 56.8977C50.3182 57.9261 50.108 58.8381 49.6875 59.6335C49.267 60.429 48.6222 61.054 47.7528 61.5085C46.8835 61.9574 45.7727 62.1818 44.4205 62.1818H39.6477V60.2727H44.3523C45.2841 60.2727 46.0341 60.1364 46.6023 59.8636C47.1761 59.5909 47.5909 59.2045 47.8466 58.7045C48.108 58.1989 48.2386 57.5966 48.2386 56.8977C48.2386 56.1989 48.108 55.5881 47.8466 55.0653C47.5852 54.5426 47.1676 54.1392 46.5938 53.8551C46.0199 53.5653 45.2614 53.4205 44.3182 53.4205H40.6023V69H38.4886ZM46.7045 61.1591L51 69H48.5455L44.3182 61.1591H46.7045Z"/>
</mask>
<path d="M16.3871 69V51.5455H22.2848C23.6484 51.5455 24.7678 51.7784 25.6428 52.2443C26.5178 52.7045 27.1655 53.3381 27.5859 54.1449C28.0064 54.9517 28.2166 55.8693 28.2166 56.8977C28.2166 57.9261 28.0064 58.8381 27.5859 59.6335C27.1655 60.429 26.5206 61.054 25.6513 61.5085C24.782 61.9574 23.6712 62.1818 22.3189 62.1818H17.5462V60.2727H22.2507C23.1825 60.2727 23.9325 60.1364 24.5007 59.8636C25.0746 59.5909 25.4893 59.2045 25.745 58.7045C26.0064 58.1989 26.1371 57.5966 26.1371 56.8977C26.1371 56.1989 26.0064 55.5881 25.745 55.0653C25.4837 54.5426 25.0661 54.1392 24.4922 53.8551C23.9183 53.5653 23.1598 53.4205 22.2166 53.4205H18.5007V69H16.3871ZM24.603 61.1591L28.8984 69H26.4439L22.2166 61.1591H24.603ZM38.4886 69V51.5455H44.3864C45.75 51.5455 46.8693 51.7784 47.7443 52.2443C48.6193 52.7045 49.267 53.3381 49.6875 54.1449C50.108 54.9517 50.3182 55.8693 50.3182 56.8977C50.3182 57.9261 50.108 58.8381 49.6875 59.6335C49.267 60.429 48.6222 61.054 47.7528 61.5085C46.8835 61.9574 45.7727 62.1818 44.4205 62.1818H39.6477V60.2727H44.3523C45.2841 60.2727 46.0341 60.1364 46.6023 59.8636C47.1761 59.5909 47.5909 59.2045 47.8466 58.7045C48.108 58.1989 48.2386 57.5966 48.2386 56.8977C48.2386 56.1989 48.108 55.5881 47.8466 55.0653C47.5852 54.5426 47.1676 54.1392 46.5938 53.8551C46.0199 53.5653 45.2614 53.4205 44.3182 53.4205H40.6023V69H38.4886ZM46.7045 61.1591L51 69H48.5455L44.3182 61.1591H46.7045Z" fill="black"/>
<path d="M16.3871 69H15.3871V70H16.3871V69ZM16.3871 51.5455V50.5455H15.3871V51.5455H16.3871ZM25.6428 52.2443L25.1728 53.127L25.1772 53.1294L25.6428 52.2443ZM27.5859 54.1449L26.6991 54.607L26.6991 54.607L27.5859 54.1449ZM27.5859 59.6335L26.7018 59.1662L26.7018 59.1662L27.5859 59.6335ZM25.6513 61.5085L26.1101 62.3971L26.1146 62.3947L25.6513 61.5085ZM17.5462 62.1818H16.5462V63.1818H17.5462V62.1818ZM17.5462 60.2727V59.2727H16.5462V60.2727H17.5462ZM24.5007 59.8636L24.0715 58.9604L24.068 58.9621L24.5007 59.8636ZM25.745 58.7045L24.8567 58.2454L24.8547 58.2493L25.745 58.7045ZM24.4922 53.8551L24.0414 54.7478L24.0485 54.7513L24.4922 53.8551ZM18.5007 53.4205V52.4205H17.5007V53.4205H18.5007ZM18.5007 69V70H19.5007V69H18.5007ZM24.603 61.1591L25.48 60.6786L25.1954 60.1591H24.603V61.1591ZM28.8984 69V70H30.5865L29.7755 68.5195L28.8984 69ZM26.4439 69L25.5637 69.4746L25.847 70H26.4439V69ZM22.2166 61.1591V60.1591H20.5414L21.3364 61.6336L22.2166 61.1591ZM17.3871 69V51.5455H15.3871V69H17.3871ZM16.3871 52.5455H22.2848V50.5455H16.3871V52.5455ZM22.2848 52.5455C23.543 52.5455 24.4865 52.7616 25.1728 53.127L26.1127 51.3616C25.049 50.7952 23.7539 50.5455 22.2848 50.5455V52.5455ZM25.1772 53.1294C25.8884 53.5034 26.381 53.9965 26.6991 54.607L28.4727 53.6827C27.95 52.6796 27.1471 51.9057 26.1083 51.3593L25.1772 53.1294ZM26.6991 54.607C27.036 55.2535 27.2166 56.009 27.2166 56.8977H29.2166C29.2166 55.7296 28.9768 54.6499 28.4727 53.6827L26.6991 54.607ZM27.2166 56.8977C27.2166 57.7867 27.0359 58.5342 26.7018 59.1662L28.47 60.1008C28.9769 59.1419 29.2166 58.0655 29.2166 56.8977H27.2166ZM26.7018 59.1662C26.3846 59.7665 25.8948 60.2527 25.1879 60.6224L26.1146 62.3947C27.1464 61.8552 27.9464 61.0915 28.47 60.1008L26.7018 59.1662ZM25.1925 60.62C24.5087 60.9731 23.5693 61.1818 22.3189 61.1818V63.1818C23.7731 63.1818 25.0552 62.9417 26.1101 62.3971L25.1925 60.62ZM22.3189 61.1818H17.5462V63.1818H22.3189V61.1818ZM18.5462 62.1818V60.2727H16.5462V62.1818H18.5462ZM17.5462 61.2727H22.2507V59.2727H17.5462V61.2727ZM22.2507 61.2727C23.2665 61.2727 24.1813 61.1262 24.9334 60.7652L24.068 58.9621C23.6837 59.1466 23.0985 59.2727 22.2507 59.2727V61.2727ZM24.9299 60.7668C25.6752 60.4127 26.2665 59.8812 26.6354 59.1598L24.8547 58.2493C24.7122 58.5279 24.474 58.7692 24.0715 58.9604L24.9299 60.7668ZM26.6334 59.1637C26.983 58.4873 27.1371 57.7205 27.1371 56.8977H25.1371C25.1371 57.4727 25.0298 57.9104 24.8567 58.2454L26.6334 59.1637ZM27.1371 56.8977C27.1371 56.0737 26.9826 55.3043 26.6395 54.6181L24.8506 55.5126C25.0302 55.8718 25.1371 56.324 25.1371 56.8977H27.1371ZM26.6395 54.6181C26.2713 53.8818 25.6851 53.3298 24.9358 52.9589L24.0485 54.7513C24.447 54.9486 24.696 55.2034 24.8506 55.5126L26.6395 54.6181ZM24.9429 52.9625C24.1794 52.5769 23.2488 52.4205 22.2166 52.4205V54.4205C23.0708 54.4205 23.6573 54.5538 24.0414 54.7478L24.9429 52.9625ZM22.2166 52.4205H18.5007V54.4205H22.2166V52.4205ZM17.5007 53.4205V69H19.5007V53.4205H17.5007ZM18.5007 68H16.3871V70H18.5007V68ZM23.726 61.6395L28.0214 69.4805L29.7755 68.5195L25.48 60.6786L23.726 61.6395ZM28.8984 68H26.4439V70H28.8984V68ZM27.3241 68.5254L23.0968 60.6845L21.3364 61.6336L25.5637 69.4746L27.3241 68.5254ZM22.2166 62.1591H24.603V60.1591H22.2166V62.1591ZM38.4886 69H37.4886V70H38.4886V69ZM38.4886 51.5455V50.5455H37.4886V51.5455H38.4886ZM47.7443 52.2443L47.2743 53.127L47.2788 53.1294L47.7443 52.2443ZM49.6875 54.1449L48.8007 54.607L48.8007 54.607L49.6875 54.1449ZM49.6875 59.6335L48.8034 59.1662L48.8034 59.1662L49.6875 59.6335ZM47.7528 61.5085L48.2116 62.3971L48.2162 62.3947L47.7528 61.5085ZM39.6477 62.1818H38.6477V63.1818H39.6477V62.1818ZM39.6477 60.2727V59.2727H38.6477V60.2727H39.6477ZM46.6023 59.8636L46.173 58.9604L46.1695 58.9621L46.6023 59.8636ZM47.8466 58.7045L46.9582 58.2454L46.9562 58.2493L47.8466 58.7045ZM46.5938 53.8551L46.143 54.7478L46.1501 54.7513L46.5938 53.8551ZM40.6023 53.4205V52.4205H39.6023V53.4205H40.6023ZM40.6023 69V70H41.6023V69H40.6023ZM46.7045 61.1591L47.5816 60.6786L47.2969 60.1591H46.7045V61.1591ZM51 69V70H52.6881L51.877 68.5195L51 69ZM48.5455 69L47.6652 69.4746L47.9485 70H48.5455V69ZM44.3182 61.1591V60.1591H42.643L43.438 61.6336L44.3182 61.1591ZM39.4886 69V51.5455H37.4886V69H39.4886ZM38.4886 52.5455H44.3864V50.5455H38.4886V52.5455ZM44.3864 52.5455C45.6446 52.5455 46.5881 52.7616 47.2743 53.127L48.2143 51.3616C47.1506 50.7952 45.8554 50.5455 44.3864 50.5455V52.5455ZM47.2788 53.1294C47.99 53.5034 48.4826 53.9965 48.8007 54.607L50.5743 53.6827C50.0515 52.6796 49.2486 51.9057 48.2098 51.3593L47.2788 53.1294ZM48.8007 54.607C49.1376 55.2535 49.3182 56.009 49.3182 56.8977H51.3182C51.3182 55.7296 51.0783 54.6499 50.5743 53.6827L48.8007 54.607ZM49.3182 56.8977C49.3182 57.7867 49.1375 58.5342 48.8034 59.1662L50.5716 60.1008C51.0784 59.1419 51.3182 58.0655 51.3182 56.8977H49.3182ZM48.8034 59.1662C48.4861 59.7665 47.9964 60.2527 47.2895 60.6224L48.2162 62.3947C49.248 61.8552 50.048 61.0915 50.5716 60.1008L48.8034 59.1662ZM47.2941 60.62C46.6102 60.9731 45.6708 61.1818 44.4205 61.1818V63.1818C45.8746 63.1818 47.1568 62.9417 48.2116 62.3971L47.2941 60.62ZM44.4205 61.1818H39.6477V63.1818H44.4205V61.1818ZM40.6477 62.1818V60.2727H38.6477V62.1818H40.6477ZM39.6477 61.2727H44.3523V59.2727H39.6477V61.2727ZM44.3523 61.2727C45.3681 61.2727 46.2829 61.1262 47.035 60.7652L46.1695 58.9621C45.7853 59.1466 45.2001 59.2727 44.3523 59.2727V61.2727ZM47.0315 60.7668C47.7768 60.4127 48.368 59.8812 48.7369 59.1598L46.9562 58.2493C46.8138 58.5279 46.5755 58.7692 46.173 58.9604L47.0315 60.7668ZM48.7349 59.1637C49.0845 58.4873 49.2386 57.7205 49.2386 56.8977H47.2386C47.2386 57.4727 47.1314 57.9104 46.9582 58.2454L48.7349 59.1637ZM49.2386 56.8977C49.2386 56.0737 49.0841 55.3043 48.741 54.6181L46.9522 55.5126C47.1318 55.8718 47.2386 56.324 47.2386 56.8977H49.2386ZM48.741 54.6181C48.3729 53.8818 47.7867 53.3298 47.0374 52.9589L46.1501 54.7513C46.5486 54.9486 46.7976 55.2034 46.9522 55.5126L48.741 54.6181ZM47.0445 52.9625C46.281 52.5769 45.3504 52.4205 44.3182 52.4205V54.4205C45.1724 54.4205 45.7588 54.5538 46.143 54.7478L47.0445 52.9625ZM44.3182 52.4205H40.6023V54.4205H44.3182V52.4205ZM39.6023 53.4205V69H41.6023V53.4205H39.6023ZM40.6023 68H38.4886V70H40.6023V68ZM45.8275 61.6395L50.123 69.4805L51.877 68.5195L47.5816 60.6786L45.8275 61.6395ZM51 68H48.5455V70H51V68ZM49.4257 68.5254L45.1984 60.6845L43.438 61.6336L47.6652 69.4746L49.4257 68.5254ZM44.3182 62.1591H46.7045V60.1591H44.3182V62.1591Z" fill="black" mask="url(#path-2-outside-1_374_9490)"/>
<g clip-path="url(#clip0_374_9490)">
<rect width="89" height="21" transform="translate(7 75)" fill="white"/>
<path d="M19.2294 91V79.3636H26.2067V80.6136H20.6385V84.5455H25.6839V85.7955H20.6385V91H19.2294ZM33.3913 87.4318V82.2727H34.7322V91H33.3913V89.5227H33.3004C33.0959 89.9659 32.7777 90.3428 32.3459 90.6534C31.9141 90.9602 31.3686 91.1136 30.7095 91.1136C30.1641 91.1136 29.6792 90.9943 29.255 90.7557C28.8307 90.5133 28.4974 90.1496 28.255 89.6648C28.0125 89.1761 27.8913 88.5606 27.8913 87.8182V82.2727H29.2322V87.7273C29.2322 88.3636 29.4103 88.8712 29.7663 89.25C30.1262 89.6288 30.5845 89.8182 31.1413 89.8182C31.4747 89.8182 31.8137 89.733 32.1584 89.5625C32.5069 89.392 32.7985 89.1307 33.0334 88.7784C33.272 88.4261 33.3913 87.9773 33.3913 87.4318ZM37.1882 91V82.2727H38.4837V83.5909H38.5746C38.7337 83.1591 39.0215 82.8087 39.4382 82.5398C39.8549 82.2708 40.3246 82.1364 40.8473 82.1364C40.9458 82.1364 41.0689 82.1383 41.2166 82.142C41.3643 82.1458 41.4761 82.1515 41.5518 82.1591V83.5227C41.5064 83.5114 41.4022 83.4943 41.2393 83.4716C41.0803 83.4451 40.9117 83.4318 40.7337 83.4318C40.3094 83.4318 39.9306 83.5208 39.5973 83.6989C39.2678 83.8731 39.0064 84.1155 38.8132 84.4261C38.6238 84.733 38.5291 85.0833 38.5291 85.4773V91H37.1882ZM44.4822 85.75V91H43.1413V82.2727H44.4368V83.6364H44.5504C44.755 83.1932 45.0656 82.8371 45.4822 82.5682C45.8989 82.2955 46.4368 82.1591 47.0959 82.1591C47.6868 82.1591 48.2038 82.2803 48.647 82.5227C49.0902 82.7614 49.4349 83.125 49.6811 83.6136C49.9273 84.0985 50.0504 84.7121 50.0504 85.4545V91H48.7095V85.5455C48.7095 84.8598 48.5315 84.3258 48.1754 83.9432C47.8194 83.5568 47.3307 83.3636 46.7095 83.3636C46.2815 83.3636 45.8989 83.4564 45.5618 83.642C45.2285 83.8277 44.9652 84.0985 44.772 84.4545C44.5788 84.8106 44.4822 85.2424 44.4822 85.75ZM52.5007 91V82.2727H53.8416V91H52.5007ZM53.1825 80.8182C52.9212 80.8182 52.6958 80.7292 52.5064 80.5511C52.3208 80.3731 52.228 80.1591 52.228 79.9091C52.228 79.6591 52.3208 79.4451 52.5064 79.267C52.6958 79.089 52.9212 79 53.1825 79C53.4439 79 53.6674 79.089 53.853 79.267C54.0424 79.4451 54.1371 79.6591 54.1371 79.9091C54.1371 80.1591 54.0424 80.3731 53.853 80.5511C53.6674 80.7292 53.4439 80.8182 53.1825 80.8182ZM60.093 82.2727V83.4091H55.5703V82.2727H60.093ZM56.8885 80.1818H58.2294V88.5C58.2294 88.8788 58.2843 89.1629 58.3942 89.3523C58.5078 89.5379 58.6518 89.6629 58.826 89.7273C59.004 89.7879 59.1915 89.8182 59.3885 89.8182C59.5362 89.8182 59.6574 89.8106 59.7521 89.7955C59.8468 89.7765 59.9226 89.7614 59.9794 89.75L60.2521 90.9545C60.1612 90.9886 60.0343 91.0227 59.8714 91.0568C59.7086 91.0947 59.5021 91.1136 59.2521 91.1136C58.8733 91.1136 58.5021 91.0322 58.1385 90.8693C57.7786 90.7064 57.4794 90.4583 57.2408 90.125C57.0059 89.7917 56.8885 89.3712 56.8885 88.8636V80.1818ZM67.6101 87.4318V82.2727H68.951V91H67.6101V89.5227H67.5192C67.3146 89.9659 66.9964 90.3428 66.5646 90.6534C66.1328 90.9602 65.5874 91.1136 64.9283 91.1136C64.3828 91.1136 63.898 90.9943 63.4737 90.7557C63.0495 90.5133 62.7161 90.1496 62.4737 89.6648C62.2313 89.1761 62.1101 88.5606 62.1101 87.8182V82.2727H63.451V87.7273C63.451 88.3636 63.629 88.8712 63.9851 89.25C64.3449 89.6288 64.8033 89.8182 65.3601 89.8182C65.6934 89.8182 66.0324 89.733 66.3771 89.5625C66.7256 89.392 67.0173 89.1307 67.2521 88.7784C67.4908 88.4261 67.6101 87.9773 67.6101 87.4318ZM71.407 91V82.2727H72.7024V83.5909H72.7933C72.9524 83.1591 73.2403 82.8087 73.657 82.5398C74.0736 82.2708 74.5433 82.1364 75.0661 82.1364C75.1645 82.1364 75.2876 82.1383 75.4354 82.142C75.5831 82.1458 75.6948 82.1515 75.7706 82.1591V83.5227C75.7251 83.5114 75.621 83.4943 75.4581 83.4716C75.299 83.4451 75.1304 83.4318 74.9524 83.4318C74.5282 83.4318 74.1494 83.5208 73.8161 83.6989C73.4865 83.8731 73.2251 84.1155 73.032 84.4261C72.8426 84.733 72.7479 85.0833 72.7479 85.4773V91H71.407ZM80.7536 91.1818C79.9126 91.1818 79.1873 90.9962 78.5774 90.625C77.9714 90.25 77.5036 89.7273 77.174 89.0568C76.8482 88.3826 76.6854 87.5985 76.6854 86.7045C76.6854 85.8106 76.8482 85.0227 77.174 84.3409C77.5036 83.6553 77.9619 83.1212 78.549 82.7386C79.1399 82.3523 79.8293 82.1591 80.6172 82.1591C81.0717 82.1591 81.5206 82.2348 81.9638 82.3864C82.407 82.5379 82.8104 82.7841 83.174 83.125C83.5376 83.4621 83.8274 83.9091 84.0433 84.4659C84.2592 85.0227 84.3672 85.7083 84.3672 86.5227V87.0909H77.6399V85.9318H83.0036C83.0036 85.4394 82.9051 85 82.7081 84.6136C82.5149 84.2273 82.2384 83.9223 81.8786 83.6989C81.5225 83.4754 81.102 83.3636 80.6172 83.3636C80.0831 83.3636 79.621 83.4962 79.2308 83.7614C78.8445 84.0227 78.5471 84.3636 78.3388 84.7841C78.1304 85.2045 78.0263 85.6553 78.0263 86.1364V86.9091C78.0263 87.5682 78.1399 88.1269 78.3672 88.5852C78.5982 89.0398 78.9183 89.3864 79.3274 89.625C79.7365 89.8598 80.2119 89.9773 80.7536 89.9773C81.1058 89.9773 81.424 89.928 81.7081 89.8295C81.996 89.7273 82.2441 89.5758 82.4524 89.375C82.6607 89.1705 82.8217 88.9167 82.9354 88.6136L84.2308 88.9773C84.0945 89.4167 83.8653 89.803 83.5433 90.1364C83.2214 90.4659 82.8236 90.7235 82.3501 90.9091C81.8767 91.0909 81.3445 91.1818 80.7536 91.1818Z" fill="url(#paint0_linear_374_9490)"/>
</g>
<defs>
<linearGradient id="paint0_linear_374_9490" x1="7" y1="85.5" x2="96" y2="85.5" gradientUnits="userSpaceOnUse">
<stop offset="0.9999" stop-color="#181818"/>
<stop offset="1" stop-color="#7E7E7E"/>
</linearGradient>
<clipPath id="clip0_374_9490">
<rect width="89" height="21" fill="white" transform="translate(7 75)"/>
</clipPath>
</defs>
</svg>
